# xmcd
#
# Track frame offsets:
#   150
#   20259
#   34616
#   50176
#   64527
#   79396
#   95701
#   113951
#   131057
#   143619
#   162304
#   178804
#   196189
#
# Disc length: 2924 seconds
#
# Revision: 0
# Processed by: cddbd v1.5.1PL0 Copyright (c) Steve Scherf et al.
# Submitted via: uFREEDB 1.6.0
#
DISCID=b50b6a0d
DTITLE=Jeffery Steele - Somethin' In The Water
DYEAR=2001
DGENRE=Country
TTITLE0=Tip Your Hat to the Teacher
TTITLE1=Somethin' in the Water
TTITLE2=The Whole Idea
TTITLE3=I Can Give You Love Like That
TTITLE4=We're Makin' up
TTITLE5=She Loved Me
TTITLE6=And the Crowd Goes Wild
TTITLE7=I Don't Wanna Leave It Like That
TTITLE8=That's What I Keep Tellin' Myself
TTITLE9=I Remember You
TTITLE10=I Was Younger Then
TTITLE11=3 O'Clock Flight
TTITLE12=Hollywood Girl
EXTD=
EXTT0=
EXTT1=
EXTT2=
EXTT3=
EXTT4=
EXTT5=
EXTT6=
EXTT7=
EXTT8=
EXTT9=
EXTT10=
EXTT11=
EXTT12=
PLAYORDER=
